<svg width="1000" height="1000" viewBox="0 0 264.583 264.583" xmlns="http://www.w3.org/2000/svg"><g fill="none" stroke="#fff" stroke-width=".529" stroke-linejoin="round"><g transform="rotate(-150 122.01 117.103)"><circle cy="132.292" cx="132.292" r="13.229"/><circle cy="132.292" cx="145.785" r="13.229"/><circle cy="143.977" cx="139.039" r="13.229"/><circle cy="143.977" cx="125.545" r="13.229"/><circle cy="132.292" cx="118.798" r="13.229"/><circle cy="120.606" cx="125.545" r="13.229"/><circle cy="120.606" cx="139.039" r="13.229"/></g><g transform="rotate(-150 126.848 112.274)"><circle cy="132.292" cx="132.292" r="13.229"/><circle cy="132.292" cx="145.785" r="13.229"/><circle cy="143.977" cx="139.039" r="13.229"/><circle cy="143.977" cx="125.545" r="13.229"/><circle cy="132.292" cx="118.798" r="13.229"/><circle cy="120.606" cx="125.545" r="13.229"/><circle cy="120.606" cx="139.039" r="13.229"/></g><g transform="rotate(-150 133.463 114.046)"><circle cy="132.292" cx="132.292" r="13.229"/><circle cy="132.292" cx="145.785" r="13.229"/><circle cy="143.977" cx="139.039" r="13.229"/><circle cy="143.977" cx="125.545" r="13.229"/><circle cy="132.292" cx="118.798" r="13.229"/><circle cy="120.606" cx="125.545" r="13.229"/><circle cy="120.606" cx="139.039" r="13.229"/></g><g transform="rotate(-150 135.238 120.648)"><circle cy="132.292" cx="132.292" r="13.229"/><circle cy="132.292" cx="145.785" r="13.229"/><circle cy="143.977" cx="139.039" r="13.229"/><circle cy="143.977" cx="125.545" r="13.229"/><circle cy="132.292" cx="118.798" r="13.229"/><circle cy="120.606" cx="125.545" r="13.229"/><circle cy="120.606" cx="139.039" r="13.229"/></g><g transform="rotate(-150 130.4 125.477)"><circle cy="132.292" cx="132.292" r="13.229"/><circle cy="132.292" cx="145.785" r="13.229"/><circle cy="143.977" cx="139.039" r="13.229"/><circle cy="143.977" cx="125.545" r="13.229"/><circle cy="132.292" cx="118.798" r="13.229"/><circle cy="120.606" cx="125.545" r="13.229"/><circle cy="120.606" cx="139.039" r="13.229"/></g><g transform="rotate(-150 123.785 123.704)"><circle cy="132.292" cx="132.292" r="13.229"/><circle cy="132.292" cx="145.785" r="13.229"/><circle cy="143.977" cx="139.039" r="13.229"/><circle cy="143.977" cx="125.545" r="13.229"/><circle cy="132.292" cx="118.798" r="13.229"/><circle cy="120.606" cx="125.545" r="13.229"/><circle cy="120.606" cx="139.039" r="13.229"/></g><g transform="rotate(-150 125.614 130.575)"><circle cy="132.292" cx="132.292" r="13.229"/><circle cy="132.292" cx="145.785" r="13.229"/><circle cy="143.977" cx="139.039" r="13.229"/><circle cy="143.977" cx="125.545" r="13.229"/><circle cy="132.292" cx="118.798" r="13.229"/><circle cy="120.606" cx="125.545" r="13.229"/><circle cy="120.606" cx="139.039" r="13.229"/></g><g transform="rotate(-150 130.452 125.746)"><circle cy="132.292" cx="132.292" r="13.229"/><circle cy="132.292" cx="145.785" r="13.229"/><circle cy="143.977" cx="139.039" r="13.229"/><circle cy="143.977" cx="125.545" r="13.229"/><circle cy="132.292" cx="118.798" r="13.229"/><circle cy="120.606" cx="125.545" r="13.229"/><circle cy="120.606" cx="139.039" r="13.229"/></g><g transform="rotate(-150 137.067 127.519)"><circle cy="132.292" cx="132.292" r="13.229"/><circle cy="132.292" cx="145.785" r="13.229"/><circle cy="143.977" cx="139.039" r="13.229"/><circle cy="143.977" cx="125.545" r="13.229"/><circle cy="132.292" cx="118.798" r="13.229"/><circle cy="120.606" cx="125.545" r="13.229"/><circle cy="120.606" cx="139.039" r="13.229"/></g><g transform="rotate(-150 138.843 134.12)"><circle cy="132.292" cx="132.292" r="13.229"/><circle cy="132.292" cx="145.785" r="13.229"/><circle cy="143.977" cx="139.039" r="13.229"/><circle cy="143.977" cx="125.545" r="13.229"/><circle cy="132.292" cx="118.798" r="13.229"/><circle cy="120.606" cx="125.545" r="13.229"/><circle cy="120.606" cx="139.039" r="13.229"/></g><g transform="rotate(-150 134.004 138.949)"><circle cy="132.292" cx="132.292" r="13.229"/><circle cy="132.292" cx="145.785" r="13.229"/><circle cy="143.977" cx="139.039" r="13.229"/><circle cy="143.977" cx="125.545" r="13.229"/><circle cy="132.292" cx="118.798" r="13.229"/><circle cy="120.606" cx="125.545" r="13.229"/><circle cy="120.606" cx="139.039" r="13.229"/></g><g transform="rotate(-150 127.39 137.177)"><circle cy="132.292" cx="132.292" r="13.229"/><circle cy="132.292" cx="145.785" r="13.229"/><circle cy="143.977" cx="139.039" r="13.229"/><circle cy="143.977" cx="125.545" r="13.229"/><circle cy="132.292" cx="118.798" r="13.229"/><circle cy="120.606" cx="125.545" r="13.229"/><circle cy="120.606" cx="139.039" r="13.229"/></g><g transform="rotate(-150 129.074 143.969)"><circle cy="132.292" cx="132.292" r="13.229"/><circle cy="132.292" cx="145.785" r="13.229"/><circle cy="143.977" cx="139.039" r="13.229"/><circle cy="143.977" cx="125.545" r="13.229"/><circle cy="132.292" cx="118.798" r="13.229"/><circle cy="120.606" cx="125.545" r="13.229"/><circle cy="120.606" cx="139.039" r="13.229"/></g><g transform="rotate(-150 133.912 139.14)"><circle cy="132.292" cx="132.292" r="13.229"/><circle cy="132.292" cx="145.785" r="13.229"/><circle cy="143.977" cx="139.039" r="13.229"/><circle cy="143.977" cx="125.545" r="13.229"/><circle cy="132.292" cx="118.798" r="13.229"/><circle cy="120.606" cx="125.545" r="13.229"/><circle cy="120.606" cx="139.039" r="13.229"/></g><g transform="rotate(-150 140.527 140.912)"><circle cy="132.292" cx="132.292" r="13.229"/><circle cy="132.292" cx="145.785" r="13.229"/><circle cy="143.977" cx="139.039" r="13.229"/><circle cy="143.977" cx="125.545" r="13.229"/><circle cy="132.292" cx="118.798" r="13.229"/><circle cy="120.606" cx="125.545" r="13.229"/><circle cy="120.606" cx="139.039" r="13.229"/></g><g transform="rotate(-150 142.303 147.514)"><circle cy="132.292" cx="132.292" r="13.229"/><circle cy="132.292" cx="145.785" r="13.229"/><circle cy="143.977" cx="139.039" r="13.229"/><circle cy="143.977" cx="125.545" r="13.229"/><circle cy="132.292" cx="118.798" r="13.229"/><circle cy="120.606" cx="125.545" r="13.229"/><circle cy="120.606" cx="139.039" r="13.229"/></g><g transform="rotate(-150 137.464 152.343)"><circle cy="132.292" cx="132.292" r="13.229"/><circle cy="132.292" cx="145.785" r="13.229"/><circle cy="143.977" cx="139.039" r="13.229"/><circle cy="143.977" cx="125.545" r="13.229"/><circle cy="132.292" cx="118.798" r="13.229"/><circle cy="120.606" cx="125.545" r="13.229"/><circle cy="120.606" cx="139.039" r="13.229"/></g><g transform="rotate(-150 130.85 150.57)"><circle cy="132.292" cx="132.292" r="13.229"/><circle cy="132.292" cx="145.785" r="13.229"/><circle cy="143.977" cx="139.039" r="13.229"/><circle cy="143.977" cx="125.545" r="13.229"/><circle cy="132.292" cx="118.798" r="13.229"/><circle cy="120.606" cx="125.545" r="13.229"/><circle cy="120.606" cx="139.039" r="13.229"/></g><g><g transform="rotate(-150 115.737 140.585)"><circle cy="132.292" cx="132.292" r="13.229"/><circle cy="132.292" cx="145.785" r="13.229"/><circle cy="143.977" cx="139.039" r="13.229"/><circle cy="143.977" cx="125.545" r="13.229"/><circle cy="132.292" cx="118.798" r="13.229"/><circle cy="120.606" cx="125.545" r="13.229"/><circle cy="120.606" cx="139.039" r="13.229"/></g><g transform="rotate(-150 120.575 135.756)"><circle cy="132.292" cx="132.292" r="13.229"/><circle cy="132.292" cx="145.785" r="13.229"/><circle cy="143.977" cx="139.039" r="13.229"/><circle cy="143.977" cx="125.545" r="13.229"/><circle cy="132.292" cx="118.798" r="13.229"/><circle cy="120.606" cx="125.545" r="13.229"/><circle cy="120.606" cx="139.039" r="13.229"/></g><g transform="rotate(-150 127.19 137.529)"><circle cy="132.292" cx="132.292" r="13.229"/><circle cy="132.292" cx="145.785" r="13.229"/><circle cy="143.977" cx="139.039" r="13.229"/><circle cy="143.977" cx="125.545" r="13.229"/><circle cy="132.292" cx="118.798" r="13.229"/><circle cy="120.606" cx="125.545" r="13.229"/><circle cy="120.606" cx="139.039" r="13.229"/></g><g transform="rotate(-150 128.966 144.13)"><circle cy="132.292" cx="132.292" r="13.229"/><circle cy="132.292" cx="145.785" r="13.229"/><circle cy="143.977" cx="139.039" r="13.229"/><circle cy="143.977" cx="125.545" r="13.229"/><circle cy="132.292" cx="118.798" r="13.229"/><circle cy="120.606" cx="125.545" r="13.229"/><circle cy="120.606" cx="139.039" r="13.229"/></g><g transform="rotate(-150 124.127 148.959)"><circle cy="132.292" cx="132.292" r="13.229"/><circle cy="132.292" cx="145.785" r="13.229"/><circle cy="143.977" cx="139.039" r="13.229"/><circle cy="143.977" cx="125.545" r="13.229"/><circle cy="132.292" cx="118.798" r="13.229"/><circle cy="120.606" cx="125.545" r="13.229"/><circle cy="120.606" cx="139.039" r="13.229"/></g><g transform="rotate(-150 117.513 147.186)"><circle cy="132.292" cx="132.292" r="13.229"/><circle cy="132.292" cx="145.785" r="13.229"/><circle cy="143.977" cx="139.039" r="13.229"/><circle cy="143.977" cx="125.545" r="13.229"/><circle cy="132.292" cx="118.798" r="13.229"/><circle cy="120.606" cx="125.545" r="13.229"/><circle cy="120.606" cx="139.039" r="13.229"/></g></g><g><g transform="rotate(-150 112.277 126.978)"><circle cy="132.292" cx="132.292" r="13.229"/><circle cy="132.292" cx="145.785" r="13.229"/><circle cy="143.977" cx="139.039" r="13.229"/><circle cy="143.977" cx="125.545" r="13.229"/><circle cy="132.292" cx="118.798" r="13.229"/><circle cy="120.606" cx="125.545" r="13.229"/><circle cy="120.606" cx="139.039" r="13.229"/></g><g transform="rotate(-150 117.115 122.15)"><circle cy="132.292" cx="132.292" r="13.229"/><circle cy="132.292" cx="145.785" r="13.229"/><circle cy="143.977" cx="139.039" r="13.229"/><circle cy="143.977" cx="125.545" r="13.229"/><circle cy="132.292" cx="118.798" r="13.229"/><circle cy="120.606" cx="125.545" r="13.229"/><circle cy="120.606" cx="139.039" r="13.229"/></g><g transform="rotate(-150 123.73 123.922)"><circle cy="132.292" cx="132.292" r="13.229"/><circle cy="132.292" cx="145.785" r="13.229"/><circle cy="143.977" cx="139.039" r="13.229"/><circle cy="143.977" cx="125.545" r="13.229"/><circle cy="132.292" cx="118.798" r="13.229"/><circle cy="120.606" cx="125.545" r="13.229"/><circle cy="120.606" cx="139.039" r="13.229"/></g><g transform="rotate(-150 125.506 130.523)"><circle cy="132.292" cx="132.292" r="13.229"/><circle cy="132.292" cx="145.785" r="13.229"/><circle cy="143.977" cx="139.039" r="13.229"/><circle cy="143.977" cx="125.545" r="13.229"/><circle cy="132.292" cx="118.798" r="13.229"/><circle cy="120.606" cx="125.545" r="13.229"/><circle cy="120.606" cx="139.039" r="13.229"/></g><g transform="rotate(-150 120.667 135.352)"><circle cy="132.292" cx="132.292" r="13.229"/><circle cy="132.292" cx="145.785" r="13.229"/><circle cy="143.977" cx="139.039" r="13.229"/><circle cy="143.977" cx="125.545" r="13.229"/><circle cy="132.292" cx="118.798" r="13.229"/><circle cy="120.606" cx="125.545" r="13.229"/><circle cy="120.606" cx="139.039" r="13.229"/></g><g transform="rotate(-150 114.053 133.58)"><circle cy="132.292" cx="132.292" r="13.229"/><circle cy="132.292" cx="145.785" r="13.229"/><circle cy="143.977" cx="139.039" r="13.229"/><circle cy="143.977" cx="125.545" r="13.229"/><circle cy="132.292" cx="118.798" r="13.229"/><circle cy="120.606" cx="125.545" r="13.229"/><circle cy="120.606" cx="139.039" r="13.229"/></g></g><g><g transform="rotate(-150 138.873 134.014)"><circle cy="132.292" cx="132.292" r="13.229"/><circle cy="132.292" cx="145.785" r="13.229"/><circle cy="143.977" cx="139.039" r="13.229"/><circle cy="143.977" cx="125.545" r="13.229"/><circle cy="132.292" cx="118.798" r="13.229"/><circle cy="120.606" cx="125.545" r="13.229"/><circle cy="120.606" cx="139.039" r="13.229"/></g><g transform="rotate(-150 143.712 129.185)"><circle cy="132.292" cx="132.292" r="13.229"/><circle cy="132.292" cx="145.785" r="13.229"/><circle cy="143.977" cx="139.039" r="13.229"/><circle cy="143.977" cx="125.545" r="13.229"/><circle cy="132.292" cx="118.798" r="13.229"/><circle cy="120.606" cx="125.545" r="13.229"/><circle cy="120.606" cx="139.039" r="13.229"/></g><g transform="rotate(-150 150.326 130.958)"><circle cy="132.292" cx="132.292" r="13.229"/><circle cy="132.292" cx="145.785" r="13.229"/><circle cy="143.977" cx="139.039" r="13.229"/><circle cy="143.977" cx="125.545" r="13.229"/><circle cy="132.292" cx="118.798" r="13.229"/><circle cy="120.606" cx="125.545" r="13.229"/><circle cy="120.606" cx="139.039" r="13.229"/></g><g transform="rotate(-150 152.102 137.559)"><circle cy="132.292" cx="132.292" r="13.229"/><circle cy="132.292" cx="145.785" r="13.229"/><circle cy="143.977" cx="139.039" r="13.229"/><circle cy="143.977" cx="125.545" r="13.229"/><circle cy="132.292" cx="118.798" r="13.229"/><circle cy="120.606" cx="125.545" r="13.229"/><circle cy="120.606" cx="139.039" r="13.229"/></g><g transform="rotate(-150 147.264 142.388)"><circle cy="132.292" cx="132.292" r="13.229"/><circle cy="132.292" cx="145.785" r="13.229"/><circle cy="143.977" cx="139.039" r="13.229"/><circle cy="143.977" cx="125.545" r="13.229"/><circle cy="132.292" cx="118.798" r="13.229"/><circle cy="120.606" cx="125.545" r="13.229"/><circle cy="120.606" cx="139.039" r="13.229"/></g><g transform="rotate(-150 140.649 140.616)"><circle cy="132.292" cx="132.292" r="13.229"/><circle cy="132.292" cx="145.785" r="13.229"/><circle cy="143.977" cx="139.039" r="13.229"/><circle cy="143.977" cx="125.545" r="13.229"/><circle cy="132.292" cx="118.798" r="13.229"/><circle cy="120.606" cx="125.545" r="13.229"/><circle cy="120.606" cx="139.039" r="13.229"/></g></g><g><g transform="rotate(-150 135.557 120.668)"><circle cy="132.292" cx="132.292" r="13.229"/><circle cy="132.292" cx="145.785" r="13.229"/><circle cy="143.977" cx="139.039" r="13.229"/><circle cy="143.977" cx="125.545" r="13.229"/><circle cy="132.292" cx="118.798" r="13.229"/><circle cy="120.606" cx="125.545" r="13.229"/><circle cy="120.606" cx="139.039" r="13.229"/></g><g transform="rotate(-150 140.396 115.839)"><circle cy="132.292" cx="132.292" r="13.229"/><circle cy="132.292" cx="145.785" r="13.229"/><circle cy="143.977" cx="139.039" r="13.229"/><circle cy="143.977" cx="125.545" r="13.229"/><circle cy="132.292" cx="118.798" r="13.229"/><circle cy="120.606" cx="125.545" r="13.229"/><circle cy="120.606" cx="139.039" r="13.229"/></g><g transform="rotate(-150 147.01 117.611)"><circle cy="132.292" cx="132.292" r="13.229"/><circle cy="132.292" cx="145.785" r="13.229"/><circle cy="143.977" cx="139.039" r="13.229"/><circle cy="143.977" cx="125.545" r="13.229"/><circle cy="132.292" cx="118.798" r="13.229"/><circle cy="120.606" cx="125.545" r="13.229"/><circle cy="120.606" cx="139.039" r="13.229"/></g><g transform="rotate(-150 148.787 124.212)"><circle cy="132.292" cx="132.292" r="13.229"/><circle cy="132.292" cx="145.785" r="13.229"/><circle cy="143.977" cx="139.039" r="13.229"/><circle cy="143.977" cx="125.545" r="13.229"/><circle cy="132.292" cx="118.798" r="13.229"/><circle cy="120.606" cx="125.545" r="13.229"/><circle cy="120.606" cx="139.039" r="13.229"/></g><g transform="rotate(-150 143.948 129.041)"><circle cy="132.292" cx="132.292" r="13.229"/><circle cy="132.292" cx="145.785" r="13.229"/><circle cy="143.977" cx="139.039" r="13.229"/><circle cy="143.977" cx="125.545" r="13.229"/><circle cy="132.292" cx="118.798" r="13.229"/><circle cy="120.606" cx="125.545" r="13.229"/><circle cy="120.606" cx="139.039" r="13.229"/></g><g transform="rotate(-150 137.333 127.269)"><circle cy="132.292" cx="132.292" r="13.229"/><circle cy="132.292" cx="145.785" r="13.229"/><circle cy="143.977" cx="139.039" r="13.229"/><circle cy="143.977" cx="125.545" r="13.229"/><circle cy="132.292" cx="118.798" r="13.229"/><circle cy="120.606" cx="125.545" r="13.229"/><circle cy="120.606" cx="139.039" r="13.229"/></g></g></g></svg>