<svg width="1000" height="1000" viewBox="0 0 264.583 264.583" xmlns="http://www.w3.org/2000/svg"><g fill="none" stroke="#fff" stroke-width=".265" stroke-linejoin="round"><path d="M132.252 78.76l-46.228 26.9-.334 53.82 46.338 26.344v0l46.392-27.014.473-53.263zm-46.228 26.9l92.396 53.15v0m-92.73.67l93.203-53.933v0" opacity=".8"/><path d="M132.028 185.824l.224-107.064-46.562 80.72m46.562-80.72l46.168 80.05m-92.73.67l92.73-.67" opacity=".8"/><path d="M86.024 105.66l92.87-.113-46.866 80.277m0 0l-46.004-80.165v0" opacity=".8"/><path d="M155.398 145.763l.063-.078-.063.078-23.146-67.003-23.226 66.981v0z" opacity=".8"/><path d="M132.055 159.145l46.838-53.598-69.757 13.25z" opacity=".8"/><path d="M109.026 145.741l69.394 13.069-45.926-53.218v0zm23.002 40.083l23.38-67.003" opacity=".8"/><path d="M132.028 185.824l-23.057-66.704 46.365-.335" opacity=".8"/><path d="M132.459 105.603L85.69 159.48l69.77-13.794zm-46.435.057l46.244 53.44m-46.244-53.44l69.384 13.16" opacity=".8"/></g></svg>