<svg width="1000" height="1000" viewBox="0 0 264.583 264.583" xmlns="http://www.w3.org/2000/svg"><g fill="none" stroke="#fff" stroke-width=".529" stroke-linejoin="round"><g transform="rotate(90 125.677 138.906)"><circle cy="132.292" cx="132.292" r="13.229"/><circle cy="132.292" cx="145.785" r="13.229"/><circle cy="143.977" cx="139.039" r="13.229"/><circle cy="143.977" cx="125.545" r="13.229"/><circle cy="132.292" cx="118.798" r="13.229"/><circle cy="120.606" cx="125.545" r="13.229"/><circle cy="120.606" cx="139.039" r="13.229"/></g><g transform="rotate(90 123.27 129.884)"><circle cy="132.292" cx="132.292" r="13.229"/><circle cy="132.292" cx="145.785" r="13.229"/><circle cy="143.977" cx="139.039" r="13.229"/><circle cy="143.977" cx="125.545" r="13.229"/><circle cy="132.292" cx="118.798" r="13.229"/><circle cy="120.606" cx="125.545" r="13.229"/><circle cy="120.606" cx="139.039" r="13.229"/></g><g transform="rotate(90 129.884 123.27)"><circle cy="132.292" cx="132.292" r="13.229"/><circle cy="132.292" cx="145.785" r="13.229"/><circle cy="143.977" cx="139.039" r="13.229"/><circle cy="143.977" cx="125.545" r="13.229"/><circle cy="132.292" cx="118.798" r="13.229"/><circle cy="120.606" cx="125.545" r="13.229"/><circle cy="120.606" cx="139.039" r="13.229"/></g><g transform="rotate(90 138.906 125.677)"><circle cy="132.292" cx="132.292" r="13.229"/><circle cy="132.292" cx="145.785" r="13.229"/><circle cy="143.977" cx="139.039" r="13.229"/><circle cy="143.977" cx="125.545" r="13.229"/><circle cy="132.292" cx="118.798" r="13.229"/><circle cy="120.606" cx="125.545" r="13.229"/><circle cy="120.606" cx="139.039" r="13.229"/></g><g transform="rotate(90 141.314 134.7)"><circle cy="132.292" cx="132.292" r="13.229"/><circle cy="132.292" cx="145.785" r="13.229"/><circle cy="143.977" cx="139.039" r="13.229"/><circle cy="143.977" cx="125.545" r="13.229"/><circle cy="132.292" cx="118.798" r="13.229"/><circle cy="120.606" cx="125.545" r="13.229"/><circle cy="120.606" cx="139.039" r="13.229"/></g><g transform="rotate(90 134.7 141.314)"><circle cy="132.292" cx="132.292" r="13.229"/><circle cy="132.292" cx="145.785" r="13.229"/><circle cy="143.977" cx="139.039" r="13.229"/><circle cy="143.977" cx="125.545" r="13.229"/><circle cy="132.292" cx="118.798" r="13.229"/><circle cy="120.606" cx="125.545" r="13.229"/><circle cy="120.606" cx="139.039" r="13.229"/></g></g></svg>